<mxfile host="app.diagrams.net" agent="Mozilla/5.0 (Windows NT 10.0; Win64; x64) AppleWebKit/537.36 (KHTML, like Gecko) Chrome/128.0.0.0 Safari/537.36" version="24.7.16">
  <diagram name="Page-1" id="9VwJ0DijG47HS__WBsSn">
    <mxGraphModel grid="1" page="0" gridSize="10" guides="1" tooltips="1" connect="1" arrows="1" fold="1" pageScale="1" pageWidth="850" pageHeight="1100" math="0" shadow="0">
      <root>
        <mxCell id="0" />
        <mxCell id="1" parent="0" />
        <mxCell id="__zALdP7zvGai0hhhhqo-1" value="Komponen Antarmuka Pengguna (UI)" style="whiteSpace=wrap;strokeWidth=2;fillColor=#ffe6cc;strokeColor=#d79b00;" vertex="1" parent="1">
          <mxGeometry x="720" y="20" width="216" height="67" as="geometry" />
        </mxCell>
        <mxCell id="__zALdP7zvGai0hhhhqo-2" value="API (Application Programming Interface)" style="whiteSpace=wrap;strokeWidth=2;fillColor=#d5e8d4;strokeColor=#82b366;" vertex="1" parent="1">
          <mxGeometry x="713" y="137" width="230" height="67" as="geometry" />
        </mxCell>
        <mxCell id="__zALdP7zvGai0hhhhqo-22" style="edgeStyle=orthogonalEdgeStyle;curved=1;rounded=0;orthogonalLoop=1;jettySize=auto;html=1;exitX=0.5;exitY=1;exitDx=0;exitDy=0;entryX=0;entryY=0.5;entryDx=0;entryDy=0;fontSize=12;startSize=8;endSize=8;" edge="1" parent="1" source="__zALdP7zvGai0hhhhqo-3" target="__zALdP7zvGai0hhhhqo-4">
          <mxGeometry relative="1" as="geometry" />
        </mxCell>
        <mxCell id="__zALdP7zvGai0hhhhqo-3" value="Komponen Autentikasi" style="whiteSpace=wrap;strokeWidth=2;fillColor=#dae8fc;strokeColor=#6c8ebf;" vertex="1" parent="1">
          <mxGeometry x="20" y="262" width="219" height="49" as="geometry" />
        </mxCell>
        <mxCell id="__zALdP7zvGai0hhhhqo-4" value="Database" style="whiteSpace=wrap;strokeWidth=2;fillColor=#f8cecc;strokeColor=#b85450;" vertex="1" parent="1">
          <mxGeometry x="912" y="370" width="126" height="49" as="geometry" />
        </mxCell>
        <mxCell id="__zALdP7zvGai0hhhhqo-5" value="Komponen Laporan Keuangan" style="whiteSpace=wrap;strokeWidth=2;fillColor=#dae8fc;strokeColor=#6c8ebf;" vertex="1" parent="1">
          <mxGeometry x="1150" y="253" width="197" height="67" as="geometry" />
        </mxCell>
        <mxCell id="__zALdP7zvGai0hhhhqo-6" value="Komponen Pengelolaan Transaksi" style="whiteSpace=wrap;strokeWidth=2;fillColor=#dae8fc;strokeColor=#6c8ebf;" vertex="1" parent="1">
          <mxGeometry x="289" y="253" width="225" height="67" as="geometry" />
        </mxCell>
        <mxCell id="__zALdP7zvGai0hhhhqo-7" value="Komponen Penghitungan Pajak" style="whiteSpace=wrap;strokeWidth=2;fillColor=#dae8fc;strokeColor=#6c8ebf;" vertex="1" parent="1">
          <mxGeometry x="564" y="253" width="235" height="67" as="geometry" />
        </mxCell>
        <mxCell id="__zALdP7zvGai0hhhhqo-8" value="Komponen Rekonsiliasi Kas" style="whiteSpace=wrap;strokeWidth=2;fillColor=#dae8fc;strokeColor=#6c8ebf;" vertex="1" parent="1">
          <mxGeometry x="849" y="262" width="251" height="49" as="geometry" />
        </mxCell>
        <mxCell id="__zALdP7zvGai0hhhhqo-9" value="Komponen Pengelolaan Akun" style="whiteSpace=wrap;strokeWidth=2;fillColor=#dae8fc;strokeColor=#6c8ebf;" vertex="1" parent="1">
          <mxGeometry x="1397" y="253" width="225" height="67" as="geometry" />
        </mxCell>
        <mxCell id="__zALdP7zvGai0hhhhqo-10" value="" style="curved=1;startArrow=none;endArrow=block;exitX=0.5;exitY=0.99;entryX=0.5;entryY=-0.01;rounded=0;fontSize=12;startSize=8;endSize=8;" edge="1" parent="1" source="__zALdP7zvGai0hhhhqo-1" target="__zALdP7zvGai0hhhhqo-2">
          <mxGeometry relative="1" as="geometry">
            <Array as="points" />
          </mxGeometry>
        </mxCell>
        <mxCell id="__zALdP7zvGai0hhhhqo-11" value="" style="curved=1;startArrow=none;endArrow=block;exitX=0;exitY=0.63;entryX=0.5;entryY=0;rounded=0;fontSize=12;startSize=8;endSize=8;" edge="1" parent="1" source="__zALdP7zvGai0hhhhqo-2" target="__zALdP7zvGai0hhhhqo-3">
          <mxGeometry relative="1" as="geometry">
            <Array as="points">
              <mxPoint x="129" y="228" />
            </Array>
          </mxGeometry>
        </mxCell>
        <mxCell id="__zALdP7zvGai0hhhhqo-12" value="" style="curved=1;startArrow=none;endArrow=block;exitX=0;exitY=0.73;entryX=0.5;entryY=0;rounded=0;fontSize=12;startSize=8;endSize=8;" edge="1" parent="1" source="__zALdP7zvGai0hhhhqo-2" target="__zALdP7zvGai0hhhhqo-6">
          <mxGeometry relative="1" as="geometry">
            <Array as="points">
              <mxPoint x="401" y="228" />
            </Array>
          </mxGeometry>
        </mxCell>
        <mxCell id="__zALdP7zvGai0hhhhqo-13" value="" style="curved=1;startArrow=none;endArrow=block;exitX=1;exitY=0.73;entryX=0.5;entryY=0;rounded=0;fontSize=12;startSize=8;endSize=8;" edge="1" parent="1" source="__zALdP7zvGai0hhhhqo-2" target="__zALdP7zvGai0hhhhqo-5">
          <mxGeometry relative="1" as="geometry">
            <Array as="points">
              <mxPoint x="1249" y="228" />
            </Array>
          </mxGeometry>
        </mxCell>
        <mxCell id="__zALdP7zvGai0hhhhqo-14" value="" style="curved=1;startArrow=none;endArrow=block;exitX=0.14;exitY=0.99;entryX=0.5;entryY=0;rounded=0;fontSize=12;startSize=8;endSize=8;" edge="1" parent="1" source="__zALdP7zvGai0hhhhqo-2" target="__zALdP7zvGai0hhhhqo-7">
          <mxGeometry relative="1" as="geometry">
            <Array as="points">
              <mxPoint x="682" y="228" />
            </Array>
          </mxGeometry>
        </mxCell>
        <mxCell id="__zALdP7zvGai0hhhhqo-15" value="" style="curved=1;startArrow=none;endArrow=block;exitX=0.87;exitY=0.99;entryX=0.5;entryY=0;rounded=0;fontSize=12;startSize=8;endSize=8;" edge="1" parent="1" source="__zALdP7zvGai0hhhhqo-2" target="__zALdP7zvGai0hhhhqo-8">
          <mxGeometry relative="1" as="geometry">
            <Array as="points">
              <mxPoint x="975" y="228" />
            </Array>
          </mxGeometry>
        </mxCell>
        <mxCell id="__zALdP7zvGai0hhhhqo-16" value="" style="curved=1;startArrow=none;endArrow=block;exitX=1;exitY=0.64;entryX=0.5;entryY=0;rounded=0;fontSize=12;startSize=8;endSize=8;" edge="1" parent="1" source="__zALdP7zvGai0hhhhqo-2" target="__zALdP7zvGai0hhhhqo-9">
          <mxGeometry relative="1" as="geometry">
            <Array as="points">
              <mxPoint x="1510" y="228" />
            </Array>
          </mxGeometry>
        </mxCell>
        <mxCell id="__zALdP7zvGai0hhhhqo-17" value="" style="curved=1;startArrow=none;endArrow=block;exitX=0.5;exitY=1;entryX=0;entryY=0.39;rounded=0;fontSize=12;startSize=8;endSize=8;" edge="1" parent="1" source="__zALdP7zvGai0hhhhqo-6" target="__zALdP7zvGai0hhhhqo-4">
          <mxGeometry relative="1" as="geometry">
            <Array as="points">
              <mxPoint x="401" y="345" />
            </Array>
          </mxGeometry>
        </mxCell>
        <mxCell id="__zALdP7zvGai0hhhhqo-18" value="" style="curved=1;startArrow=none;endArrow=block;exitX=0.5;exitY=1;entryX=0;entryY=0.28;rounded=0;fontSize=12;startSize=8;endSize=8;" edge="1" parent="1" source="__zALdP7zvGai0hhhhqo-7" target="__zALdP7zvGai0hhhhqo-4">
          <mxGeometry relative="1" as="geometry">
            <Array as="points">
              <mxPoint x="682" y="345" />
            </Array>
          </mxGeometry>
        </mxCell>
        <mxCell id="__zALdP7zvGai0hhhhqo-19" value="" style="curved=1;startArrow=none;endArrow=block;exitX=0.5;exitY=1;entryX=0.5;entryY=0;rounded=0;fontSize=12;startSize=8;endSize=8;" edge="1" parent="1" source="__zALdP7zvGai0hhhhqo-8" target="__zALdP7zvGai0hhhhqo-4">
          <mxGeometry relative="1" as="geometry">
            <Array as="points" />
          </mxGeometry>
        </mxCell>
        <mxCell id="__zALdP7zvGai0hhhhqo-20" value="" style="curved=1;startArrow=none;endArrow=block;exitX=0.5;exitY=1;entryX=1;entryY=0.26;rounded=0;fontSize=12;startSize=8;endSize=8;" edge="1" parent="1" source="__zALdP7zvGai0hhhhqo-5" target="__zALdP7zvGai0hhhhqo-4">
          <mxGeometry relative="1" as="geometry">
            <Array as="points">
              <mxPoint x="1249" y="345" />
            </Array>
          </mxGeometry>
        </mxCell>
        <mxCell id="__zALdP7zvGai0hhhhqo-21" value="" style="curved=1;startArrow=none;endArrow=block;exitX=0.5;exitY=1;entryX=1;entryY=0.38;rounded=0;fontSize=12;startSize=8;endSize=8;" edge="1" parent="1" source="__zALdP7zvGai0hhhhqo-9" target="__zALdP7zvGai0hhhhqo-4">
          <mxGeometry relative="1" as="geometry">
            <Array as="points">
              <mxPoint x="1510" y="345" />
            </Array>
          </mxGeometry>
        </mxCell>
      </root>
    </mxGraphModel>
  </diagram>
</mxfile>
